<mxfile host="Electron" modified="2023-10-02T12:10:09.895Z" agent="Mozilla/5.0 (Windows NT 10.0; Win64; x64) AppleWebKit/537.36 (KHTML, like Gecko) draw.io/21.7.5 Chrome/114.0.5735.289 Electron/25.8.1 Safari/537.36" etag="r3IBDmZmXhOcXr41NxLc" version="21.7.5" type="device" pages="2">
  <diagram name="Contex Diagram" id="j-m7U_B0lovFMBxRdxPI">
    <mxGraphModel dx="1658" dy="617" grid="1" gridSize="10" guides="1" tooltips="1" connect="1" arrows="1" fold="1" page="1" pageScale="1" pageWidth="850" pageHeight="1100" math="0" shadow="0">
      <root>
        <mxCell id="0" />
        <mxCell id="1" parent="0" />
        <mxCell id="IA0nTW5X0tGfLPT79I0Z-28" style="edgeStyle=orthogonalEdgeStyle;rounded=0;orthogonalLoop=1;jettySize=auto;html=1;exitX=0.75;exitY=1;exitDx=0;exitDy=0;entryX=0.75;entryY=0;entryDx=0;entryDy=0;" parent="1" source="IA0nTW5X0tGfLPT79I0Z-1" target="IA0nTW5X0tGfLPT79I0Z-4" edge="1">
          <mxGeometry relative="1" as="geometry">
            <Array as="points">
              <mxPoint x="486" y="390" />
            </Array>
          </mxGeometry>
        </mxCell>
        <mxCell id="IA0nTW5X0tGfLPT79I0Z-32" style="edgeStyle=orthogonalEdgeStyle;rounded=0;orthogonalLoop=1;jettySize=auto;html=1;exitX=0.75;exitY=0;exitDx=0;exitDy=0;entryX=0.816;entryY=1;entryDx=0;entryDy=0;entryPerimeter=0;" parent="1" source="IA0nTW5X0tGfLPT79I0Z-1" target="IA0nTW5X0tGfLPT79I0Z-5" edge="1">
          <mxGeometry relative="1" as="geometry" />
        </mxCell>
        <mxCell id="IA0nTW5X0tGfLPT79I0Z-1" value="Robot Kontrol Pengawasan" style="rounded=1;whiteSpace=wrap;html=1;" parent="1" vertex="1">
          <mxGeometry x="360" y="300" width="180" height="90" as="geometry" />
        </mxCell>
        <mxCell id="IA0nTW5X0tGfLPT79I0Z-17" style="edgeStyle=orthogonalEdgeStyle;rounded=0;orthogonalLoop=1;jettySize=auto;html=1;exitX=0.25;exitY=0;exitDx=0;exitDy=0;entryX=0.3;entryY=1.044;entryDx=0;entryDy=0;entryPerimeter=0;" parent="1" source="IA0nTW5X0tGfLPT79I0Z-4" target="IA0nTW5X0tGfLPT79I0Z-1" edge="1">
          <mxGeometry relative="1" as="geometry" />
        </mxCell>
        <mxCell id="IA0nTW5X0tGfLPT79I0Z-4" value="Modul Program&amp;nbsp;" style="rounded=0;whiteSpace=wrap;html=1;" parent="1" vertex="1">
          <mxGeometry x="377.5" y="478" width="145" height="50" as="geometry" />
        </mxCell>
        <mxCell id="IA0nTW5X0tGfLPT79I0Z-31" style="edgeStyle=orthogonalEdgeStyle;rounded=0;orthogonalLoop=1;jettySize=auto;html=1;exitX=0.25;exitY=1;exitDx=0;exitDy=0;entryX=0.25;entryY=0;entryDx=0;entryDy=0;" parent="1" source="IA0nTW5X0tGfLPT79I0Z-5" target="IA0nTW5X0tGfLPT79I0Z-1" edge="1">
          <mxGeometry relative="1" as="geometry" />
        </mxCell>
        <mxCell id="IA0nTW5X0tGfLPT79I0Z-5" value="ESP-32 Cam" style="rounded=0;whiteSpace=wrap;html=1;" parent="1" vertex="1">
          <mxGeometry x="364.5" y="165" width="160" height="50" as="geometry" />
        </mxCell>
        <mxCell id="IA0nTW5X0tGfLPT79I0Z-15" style="edgeStyle=orthogonalEdgeStyle;rounded=0;orthogonalLoop=1;jettySize=auto;html=1;entryX=0;entryY=0.75;entryDx=0;entryDy=0;" parent="1" source="IA0nTW5X0tGfLPT79I0Z-7" target="IA0nTW5X0tGfLPT79I0Z-1" edge="1">
          <mxGeometry relative="1" as="geometry" />
        </mxCell>
        <mxCell id="IA0nTW5X0tGfLPT79I0Z-7" value="Saklar On Off Button" style="rounded=0;whiteSpace=wrap;html=1;" parent="1" vertex="1">
          <mxGeometry x="140" y="420" width="145" height="50" as="geometry" />
        </mxCell>
        <mxCell id="IA0nTW5X0tGfLPT79I0Z-16" style="edgeStyle=orthogonalEdgeStyle;rounded=0;orthogonalLoop=1;jettySize=auto;html=1;entryX=0;entryY=0.5;entryDx=0;entryDy=0;" parent="1" source="IA0nTW5X0tGfLPT79I0Z-8" target="IA0nTW5X0tGfLPT79I0Z-1" edge="1">
          <mxGeometry relative="1" as="geometry" />
        </mxCell>
        <mxCell id="IA0nTW5X0tGfLPT79I0Z-8" value="Kontrol&amp;nbsp;" style="rounded=0;whiteSpace=wrap;html=1;" parent="1" vertex="1">
          <mxGeometry x="140" y="230" width="145" height="50" as="geometry" />
        </mxCell>
        <mxCell id="IA0nTW5X0tGfLPT79I0Z-14" style="edgeStyle=orthogonalEdgeStyle;rounded=0;orthogonalLoop=1;jettySize=auto;html=1;entryX=1;entryY=0.25;entryDx=0;entryDy=0;" parent="1" source="IA0nTW5X0tGfLPT79I0Z-9" target="IA0nTW5X0tGfLPT79I0Z-1" edge="1">
          <mxGeometry relative="1" as="geometry" />
        </mxCell>
        <mxCell id="IA0nTW5X0tGfLPT79I0Z-9" value="Baterai" style="rounded=0;whiteSpace=wrap;html=1;" parent="1" vertex="1">
          <mxGeometry x="640" y="230" width="145" height="50" as="geometry" />
        </mxCell>
        <mxCell id="IA0nTW5X0tGfLPT79I0Z-13" style="edgeStyle=orthogonalEdgeStyle;rounded=0;orthogonalLoop=1;jettySize=auto;html=1;entryX=1;entryY=0.5;entryDx=0;entryDy=0;" parent="1" source="IA0nTW5X0tGfLPT79I0Z-10" target="IA0nTW5X0tGfLPT79I0Z-1" edge="1">
          <mxGeometry relative="1" as="geometry">
            <Array as="points">
              <mxPoint x="600" y="345" />
              <mxPoint x="600" y="345" />
            </Array>
          </mxGeometry>
        </mxCell>
        <mxCell id="IA0nTW5X0tGfLPT79I0Z-10" value="Modul Step Down&amp;nbsp;&lt;br&gt;LM2596" style="rounded=0;whiteSpace=wrap;html=1;" parent="1" vertex="1">
          <mxGeometry x="640" y="320" width="145" height="50" as="geometry" />
        </mxCell>
        <mxCell id="IA0nTW5X0tGfLPT79I0Z-12" style="edgeStyle=orthogonalEdgeStyle;rounded=0;orthogonalLoop=1;jettySize=auto;html=1;entryX=1;entryY=0.75;entryDx=0;entryDy=0;" parent="1" source="IA0nTW5X0tGfLPT79I0Z-11" target="IA0nTW5X0tGfLPT79I0Z-1" edge="1">
          <mxGeometry relative="1" as="geometry" />
        </mxCell>
        <mxCell id="IA0nTW5X0tGfLPT79I0Z-11" value="Handphone User" style="rounded=0;whiteSpace=wrap;html=1;" parent="1" vertex="1">
          <mxGeometry x="640" y="420" width="145" height="50" as="geometry" />
        </mxCell>
        <mxCell id="IA0nTW5X0tGfLPT79I0Z-19" value="Data" style="text;html=1;strokeColor=none;fillColor=none;align=center;verticalAlign=middle;whiteSpace=wrap;rounded=0;fontStyle=1" parent="1" vertex="1">
          <mxGeometry x="479" y="422" width="60" height="30" as="geometry" />
        </mxCell>
        <mxCell id="IA0nTW5X0tGfLPT79I0Z-20" value="Intruksi" style="text;html=1;strokeColor=none;fillColor=none;align=center;verticalAlign=middle;whiteSpace=wrap;rounded=0;fontStyle=1" parent="1" vertex="1">
          <mxGeometry x="360" y="420" width="60" height="30" as="geometry" />
        </mxCell>
        <mxCell id="IA0nTW5X0tGfLPT79I0Z-21" value="Output" style="text;html=1;strokeColor=none;fillColor=none;align=center;verticalAlign=middle;whiteSpace=wrap;rounded=0;fontStyle=1" parent="1" vertex="1">
          <mxGeometry x="580" y="420" width="60" height="30" as="geometry" />
        </mxCell>
        <mxCell id="IA0nTW5X0tGfLPT79I0Z-22" value="Daya" style="text;html=1;strokeColor=none;fillColor=none;align=center;verticalAlign=middle;whiteSpace=wrap;rounded=0;fontStyle=1" parent="1" vertex="1">
          <mxGeometry x="590" y="250" width="60" height="30" as="geometry" />
        </mxCell>
        <mxCell id="IA0nTW5X0tGfLPT79I0Z-33" value="Intruksi" style="text;html=1;strokeColor=none;fillColor=none;align=center;verticalAlign=middle;whiteSpace=wrap;rounded=0;fontStyle=1" parent="1" vertex="1">
          <mxGeometry x="350" y="260" width="60" height="30" as="geometry" />
        </mxCell>
        <mxCell id="IA0nTW5X0tGfLPT79I0Z-34" value="Data" style="text;html=1;strokeColor=none;fillColor=none;align=center;verticalAlign=middle;whiteSpace=wrap;rounded=0;fontStyle=1" parent="1" vertex="1">
          <mxGeometry x="490" y="260" width="60" height="30" as="geometry" />
        </mxCell>
        <mxCell id="IA0nTW5X0tGfLPT79I0Z-36" style="edgeStyle=orthogonalEdgeStyle;rounded=0;orthogonalLoop=1;jettySize=auto;html=1;entryX=-0.013;entryY=0.654;entryDx=0;entryDy=0;entryPerimeter=0;" parent="1" source="IA0nTW5X0tGfLPT79I0Z-35" target="IA0nTW5X0tGfLPT79I0Z-1" edge="1">
          <mxGeometry relative="1" as="geometry" />
        </mxCell>
        <mxCell id="IA0nTW5X0tGfLPT79I0Z-35" value="Kamera" style="rounded=0;whiteSpace=wrap;html=1;" parent="1" vertex="1">
          <mxGeometry x="140" y="333" width="145" height="50" as="geometry" />
        </mxCell>
        <mxCell id="IA0nTW5X0tGfLPT79I0Z-37" value="Tegangan" style="text;html=1;strokeColor=none;fillColor=none;align=center;verticalAlign=middle;whiteSpace=wrap;rounded=0;fontStyle=1" parent="1" vertex="1">
          <mxGeometry x="580" y="320" width="60" height="30" as="geometry" />
        </mxCell>
        <mxCell id="IA0nTW5X0tGfLPT79I0Z-38" value="Bit&lt;br&gt;Data" style="text;html=1;strokeColor=none;fillColor=none;align=center;verticalAlign=middle;whiteSpace=wrap;rounded=0;fontStyle=1" parent="1" vertex="1">
          <mxGeometry x="280" y="410" width="50" height="30" as="geometry" />
        </mxCell>
        <mxCell id="IA0nTW5X0tGfLPT79I0Z-39" value="Data" style="text;html=1;strokeColor=none;fillColor=none;align=center;verticalAlign=middle;whiteSpace=wrap;rounded=0;fontStyle=1" parent="1" vertex="1">
          <mxGeometry x="280" y="333" width="50" height="30" as="geometry" />
        </mxCell>
        <mxCell id="IA0nTW5X0tGfLPT79I0Z-40" value="Sinyal Digital" style="text;html=1;strokeColor=none;fillColor=none;align=center;verticalAlign=middle;whiteSpace=wrap;rounded=0;fontStyle=1" parent="1" vertex="1">
          <mxGeometry x="290" y="220" width="40" height="30" as="geometry" />
        </mxCell>
      </root>
    </mxGraphModel>
  </diagram>
  <diagram id="AwPUduXyaKb2P1uszrud" name="Data Flow Diagram">
    <mxGraphModel dx="1382" dy="514" grid="1" gridSize="10" guides="1" tooltips="1" connect="1" arrows="1" fold="1" page="1" pageScale="1" pageWidth="850" pageHeight="1100" math="0" shadow="0">
      <root>
        <mxCell id="0" />
        <mxCell id="1" parent="0" />
        <mxCell id="rK4MUgwDrfm263CIdrwi-7" style="edgeStyle=orthogonalEdgeStyle;rounded=0;orthogonalLoop=1;jettySize=auto;html=1;entryX=0.497;entryY=-0.033;entryDx=0;entryDy=0;entryPerimeter=0;" edge="1" parent="1" source="rK4MUgwDrfm263CIdrwi-1" target="rK4MUgwDrfm263CIdrwi-6">
          <mxGeometry relative="1" as="geometry" />
        </mxCell>
        <mxCell id="rK4MUgwDrfm263CIdrwi-1" value="Switch on off button" style="rounded=0;whiteSpace=wrap;html=1;" vertex="1" parent="1">
          <mxGeometry x="90" y="80" width="120" height="60" as="geometry" />
        </mxCell>
        <mxCell id="rK4MUgwDrfm263CIdrwi-16" style="edgeStyle=orthogonalEdgeStyle;rounded=0;orthogonalLoop=1;jettySize=auto;html=1;entryX=0.25;entryY=0;entryDx=0;entryDy=0;" edge="1" parent="1" source="rK4MUgwDrfm263CIdrwi-6" target="rK4MUgwDrfm263CIdrwi-8">
          <mxGeometry relative="1" as="geometry" />
        </mxCell>
        <mxCell id="rK4MUgwDrfm263CIdrwi-6" value="Menghidupkan Sistem" style="rounded=1;whiteSpace=wrap;html=1;" vertex="1" parent="1">
          <mxGeometry x="90" y="180" width="120" height="60" as="geometry" />
        </mxCell>
        <mxCell id="rK4MUgwDrfm263CIdrwi-29" style="edgeStyle=orthogonalEdgeStyle;rounded=0;orthogonalLoop=1;jettySize=auto;html=1;entryX=0.5;entryY=1;entryDx=0;entryDy=0;" edge="1" parent="1" source="rK4MUgwDrfm263CIdrwi-8" target="rK4MUgwDrfm263CIdrwi-23">
          <mxGeometry relative="1" as="geometry" />
        </mxCell>
        <mxCell id="rK4MUgwDrfm263CIdrwi-30" style="edgeStyle=orthogonalEdgeStyle;rounded=0;orthogonalLoop=1;jettySize=auto;html=1;exitX=1;exitY=0.75;exitDx=0;exitDy=0;entryX=0.5;entryY=1;entryDx=0;entryDy=0;" edge="1" parent="1" source="rK4MUgwDrfm263CIdrwi-8" target="rK4MUgwDrfm263CIdrwi-24">
          <mxGeometry relative="1" as="geometry" />
        </mxCell>
        <mxCell id="rK4MUgwDrfm263CIdrwi-45" style="edgeStyle=orthogonalEdgeStyle;rounded=0;orthogonalLoop=1;jettySize=auto;html=1;exitX=1;exitY=0.25;exitDx=0;exitDy=0;entryX=0;entryY=0.5;entryDx=0;entryDy=0;" edge="1" parent="1" source="rK4MUgwDrfm263CIdrwi-8" target="rK4MUgwDrfm263CIdrwi-39">
          <mxGeometry relative="1" as="geometry">
            <Array as="points">
              <mxPoint x="470" y="318" />
              <mxPoint x="470" y="440" />
            </Array>
          </mxGeometry>
        </mxCell>
        <mxCell id="rK4MUgwDrfm263CIdrwi-8" value="Mikrokontroller ESP-32 Cam" style="rounded=0;whiteSpace=wrap;html=1;" vertex="1" parent="1">
          <mxGeometry x="195" y="300" width="190" height="70" as="geometry" />
        </mxCell>
        <mxCell id="rK4MUgwDrfm263CIdrwi-11" style="edgeStyle=orthogonalEdgeStyle;rounded=0;orthogonalLoop=1;jettySize=auto;html=1;entryX=0.5;entryY=0;entryDx=0;entryDy=0;" edge="1" parent="1" source="rK4MUgwDrfm263CIdrwi-9" target="rK4MUgwDrfm263CIdrwi-10">
          <mxGeometry relative="1" as="geometry" />
        </mxCell>
        <mxCell id="rK4MUgwDrfm263CIdrwi-9" value="Koneksi Wifi" style="rounded=0;whiteSpace=wrap;html=1;" vertex="1" parent="1">
          <mxGeometry x="230" y="80" width="120" height="60" as="geometry" />
        </mxCell>
        <mxCell id="rK4MUgwDrfm263CIdrwi-17" style="edgeStyle=orthogonalEdgeStyle;rounded=0;orthogonalLoop=1;jettySize=auto;html=1;entryX=0.5;entryY=0;entryDx=0;entryDy=0;" edge="1" parent="1" source="rK4MUgwDrfm263CIdrwi-10" target="rK4MUgwDrfm263CIdrwi-8">
          <mxGeometry relative="1" as="geometry" />
        </mxCell>
        <mxCell id="rK4MUgwDrfm263CIdrwi-10" value="Menghubungkan Sistem" style="rounded=1;whiteSpace=wrap;html=1;" vertex="1" parent="1">
          <mxGeometry x="230" y="180" width="120" height="60" as="geometry" />
        </mxCell>
        <mxCell id="rK4MUgwDrfm263CIdrwi-14" value="" style="edgeStyle=orthogonalEdgeStyle;rounded=0;orthogonalLoop=1;jettySize=auto;html=1;" edge="1" parent="1" source="rK4MUgwDrfm263CIdrwi-12" target="rK4MUgwDrfm263CIdrwi-13">
          <mxGeometry relative="1" as="geometry" />
        </mxCell>
        <mxCell id="rK4MUgwDrfm263CIdrwi-12" value="LED" style="rounded=0;whiteSpace=wrap;html=1;" vertex="1" parent="1">
          <mxGeometry x="370" y="80" width="120" height="60" as="geometry" />
        </mxCell>
        <mxCell id="rK4MUgwDrfm263CIdrwi-18" style="edgeStyle=orthogonalEdgeStyle;rounded=0;orthogonalLoop=1;jettySize=auto;html=1;entryX=0.75;entryY=0;entryDx=0;entryDy=0;" edge="1" parent="1" source="rK4MUgwDrfm263CIdrwi-13" target="rK4MUgwDrfm263CIdrwi-8">
          <mxGeometry relative="1" as="geometry" />
        </mxCell>
        <mxCell id="rK4MUgwDrfm263CIdrwi-13" value="Indikator" style="rounded=1;whiteSpace=wrap;html=1;" vertex="1" parent="1">
          <mxGeometry x="370" y="180" width="120" height="60" as="geometry" />
        </mxCell>
        <mxCell id="rK4MUgwDrfm263CIdrwi-23" value="Pant-Tilt Servo" style="rounded=0;whiteSpace=wrap;html=1;" vertex="1" parent="1">
          <mxGeometry x="510" y="80" width="120" height="60" as="geometry" />
        </mxCell>
        <mxCell id="rK4MUgwDrfm263CIdrwi-24" value="4WD Gearbox&amp;nbsp;" style="rounded=0;whiteSpace=wrap;html=1;" vertex="1" parent="1">
          <mxGeometry x="650" y="80" width="120" height="60" as="geometry" />
        </mxCell>
        <mxCell id="rK4MUgwDrfm263CIdrwi-31" value="Instruksi" style="text;html=1;strokeColor=none;fillColor=none;align=center;verticalAlign=middle;whiteSpace=wrap;rounded=0;fontStyle=1" vertex="1" parent="1">
          <mxGeometry x="90" y="145" width="60" height="30" as="geometry" />
        </mxCell>
        <mxCell id="rK4MUgwDrfm263CIdrwi-32" value="Sinyal Digital" style="text;html=1;strokeColor=none;fillColor=none;align=center;verticalAlign=middle;whiteSpace=wrap;rounded=0;fontStyle=1" vertex="1" parent="1">
          <mxGeometry x="210" y="150" width="80" height="20" as="geometry" />
        </mxCell>
        <mxCell id="rK4MUgwDrfm263CIdrwi-34" value="Instruksi" style="text;html=1;strokeColor=none;fillColor=none;align=center;verticalAlign=middle;whiteSpace=wrap;rounded=0;fontStyle=1" vertex="1" parent="1">
          <mxGeometry x="160" y="245" width="60" height="30" as="geometry" />
        </mxCell>
        <mxCell id="rK4MUgwDrfm263CIdrwi-35" value="Sinyal &lt;br&gt;Digital" style="text;html=1;strokeColor=none;fillColor=none;align=center;verticalAlign=middle;whiteSpace=wrap;rounded=0;fontStyle=1" vertex="1" parent="1">
          <mxGeometry x="270" y="250" width="80" height="20" as="geometry" />
        </mxCell>
        <mxCell id="rK4MUgwDrfm263CIdrwi-36" value="Instruksi" style="text;html=1;strokeColor=none;fillColor=none;align=center;verticalAlign=middle;whiteSpace=wrap;rounded=0;fontStyle=1" vertex="1" parent="1">
          <mxGeometry x="511" y="310" width="60" height="30" as="geometry" />
        </mxCell>
        <mxCell id="rK4MUgwDrfm263CIdrwi-37" value="Instruksi" style="text;html=1;strokeColor=none;fillColor=none;align=center;verticalAlign=middle;whiteSpace=wrap;rounded=0;fontStyle=1" vertex="1" parent="1">
          <mxGeometry x="654" y="328" width="60" height="30" as="geometry" />
        </mxCell>
        <mxCell id="rK4MUgwDrfm263CIdrwi-50" style="edgeStyle=orthogonalEdgeStyle;rounded=0;orthogonalLoop=1;jettySize=auto;html=1;entryX=1;entryY=0.5;entryDx=0;entryDy=0;" edge="1" parent="1" source="rK4MUgwDrfm263CIdrwi-39" target="rK4MUgwDrfm263CIdrwi-52">
          <mxGeometry relative="1" as="geometry">
            <mxPoint x="270" y="440.0000000000001" as="targetPoint" />
            <Array as="points">
              <mxPoint x="710" y="490" />
            </Array>
          </mxGeometry>
        </mxCell>
        <mxCell id="rK4MUgwDrfm263CIdrwi-39" value="WebSocket" style="rounded=0;whiteSpace=wrap;html=1;" vertex="1" parent="1">
          <mxGeometry x="650" y="410" width="120" height="60" as="geometry" />
        </mxCell>
        <mxCell id="rK4MUgwDrfm263CIdrwi-46" value="Data Digital" style="text;html=1;strokeColor=none;fillColor=none;align=center;verticalAlign=middle;whiteSpace=wrap;rounded=0;fontStyle=1" vertex="1" parent="1">
          <mxGeometry x="520" y="420" width="80" height="20" as="geometry" />
        </mxCell>
        <mxCell id="rK4MUgwDrfm263CIdrwi-48" value="Sinyal Digital" style="text;html=1;strokeColor=none;fillColor=none;align=center;verticalAlign=middle;whiteSpace=wrap;rounded=0;fontStyle=1" vertex="1" parent="1">
          <mxGeometry x="230" y="470" width="80" height="20" as="geometry" />
        </mxCell>
        <mxCell id="rK4MUgwDrfm263CIdrwi-54" style="edgeStyle=orthogonalEdgeStyle;rounded=0;orthogonalLoop=1;jettySize=auto;html=1;entryX=0.5;entryY=1;entryDx=0;entryDy=0;" edge="1" parent="1" source="rK4MUgwDrfm263CIdrwi-52" target="rK4MUgwDrfm263CIdrwi-53">
          <mxGeometry relative="1" as="geometry" />
        </mxCell>
        <mxCell id="rK4MUgwDrfm263CIdrwi-52" value="Koneksi Wifi" style="rounded=0;whiteSpace=wrap;html=1;" vertex="1" parent="1">
          <mxGeometry x="28" y="460" width="120" height="60" as="geometry" />
        </mxCell>
        <mxCell id="rK4MUgwDrfm263CIdrwi-56" style="edgeStyle=orthogonalEdgeStyle;rounded=0;orthogonalLoop=1;jettySize=auto;html=1;exitX=0.5;exitY=0;exitDx=0;exitDy=0;entryX=0.5;entryY=1;entryDx=0;entryDy=0;" edge="1" parent="1" source="rK4MUgwDrfm263CIdrwi-53" target="rK4MUgwDrfm263CIdrwi-55">
          <mxGeometry relative="1" as="geometry" />
        </mxCell>
        <mxCell id="rK4MUgwDrfm263CIdrwi-53" value="Smartphone Pengguna" style="rounded=0;whiteSpace=wrap;html=1;" vertex="1" parent="1">
          <mxGeometry x="20" y="390" width="136" height="30" as="geometry" />
        </mxCell>
        <mxCell id="rK4MUgwDrfm263CIdrwi-57" style="edgeStyle=orthogonalEdgeStyle;rounded=0;orthogonalLoop=1;jettySize=auto;html=1;" edge="1" parent="1" source="rK4MUgwDrfm263CIdrwi-55" target="rK4MUgwDrfm263CIdrwi-8">
          <mxGeometry relative="1" as="geometry" />
        </mxCell>
        <mxCell id="rK4MUgwDrfm263CIdrwi-55" value="Video Stream, Kontrol" style="rounded=0;whiteSpace=wrap;html=1;" vertex="1" parent="1">
          <mxGeometry x="20" y="320" width="137.5" height="30" as="geometry" />
        </mxCell>
        <mxCell id="rK4MUgwDrfm263CIdrwi-58" value="Data&lt;br&gt;&amp;nbsp;Digital" style="text;html=1;strokeColor=none;fillColor=none;align=center;verticalAlign=middle;whiteSpace=wrap;rounded=0;fontStyle=1" vertex="1" parent="1">
          <mxGeometry x="76" y="358" width="80" height="20" as="geometry" />
        </mxCell>
      </root>
    </mxGraphModel>
  </diagram>
</mxfile>
